<svg width="207" height="181" viewBox="0 0 207 181" fill="none" xmlns="http://www.w3.org/2000/svg">
<rect x="13.0056" width="180.645" height="180.645" rx="90.3224" fill="white"/>
<path d="M102.96 110.017C68.5841 108.532 33.3191 127.828 13.1676 140.296C12.1798 142.077 15.3605 145.995 35.9861 147.42C61.7682 149.201 59.1011 140.296 82.216 140.296C105.331 140.296 137.929 150.092 153.635 150.686C169.341 151.279 192.752 148.904 193.642 140.296C194.192 134.969 177.049 126.912 152.289 119.893C147.958 102.914 130.653 75.2219 128.608 62.9328C126.973 53.1017 131.335 41.4953 133.72 36.9211C151.509 36.9211 165.412 62.1136 166.435 56.1738C167.457 50.2342 162.55 44.4993 158.051 36.9211C153.553 29.3429 134.129 18.6924 127.382 18.078C120.634 17.4635 121.861 18.078 99.7787 30.9815C82.1129 41.3042 65.3339 87.9728 59.1527 110.017C70.2315 100.14 78.4902 98.3662 111.525 99.3751C137.953 100.182 144.055 110.194 143.801 115.099C128.546 110.775 116.066 110.583 102.96 110.017Z" fill="black"/>
</svg>
