<svg width="103" height="76" viewBox="0 0 103 76" fill="none" xmlns="http://www.w3.org/2000/svg">
<path d="M50.8531 51.9647C31.61 51.1353 11.8693 61.918 0.588822 68.8854C0.0358611 69.8807 1.8164 72.0704 13.3622 72.8667C27.7946 73.862 26.3016 68.8854 39.2409 68.8854C52.1802 68.8854 70.4279 74.3597 79.22 74.6915C88.0121 75.0232 101.117 73.6961 101.615 68.8854C101.923 65.9087 92.3268 61.406 78.4666 57.4838C76.0421 47.9956 66.3551 32.5206 65.2106 25.6532C64.2949 20.1593 66.7367 13.6734 68.072 11.1172C78.0297 11.1172 85.8128 25.1954 86.385 21.8761C86.9573 18.5569 84.2104 15.3521 81.6923 11.1172C79.1743 6.88234 68.3009 0.930611 64.5238 0.587241C60.7468 0.243872 61.4335 0.587256 49.0722 7.79802C39.1832 13.5666 29.7906 39.6461 26.3305 51.9647C32.5322 46.4457 37.1553 45.4542 55.6478 46.018C70.4418 46.469 73.8571 52.0639 73.7154 54.8049C65.1754 52.3883 58.1894 52.281 50.8531 51.9647Z" fill="black" stroke="black"/>
</svg>
